<?xml version="1.0" encoding="UTF-8" standalone="no"?>
<!-- Created with Inkscape (http://www.inkscape.org/) -->

<svg
   xmlns:dc="http://purl.org/dc/elements/1.1/"
   xmlns:cc="http://creativecommons.org/ns#"
   xmlns:rdf="http://www.w3.org/1999/02/22-rdf-syntax-ns#"
   xmlns:svg="http://www.w3.org/2000/svg"
   xmlns="http://www.w3.org/2000/svg"
   xmlns:sodipodi="http://sodipodi.sourceforge.net/DTD/sodipodi-0.dtd"
   xmlns:inkscape="http://www.inkscape.org/namespaces/inkscape"
   width="300"
   height="300"
   viewBox="0 0 300 300"
   id="svg1"
   version="1.1"
   inkscape:version="0.92.2 5c3e80d, 2017-08-06"
   sodipodi:docname="Chiba-none.svg"
   inkscape:export-filename="/Users/Hubert/Pictures/pu.png"
   inkscape:export-xdpi="90"
   inkscape:export-ydpi="90">
  <defs
     id="defs4">
    <inkscape:path-effect
       effect="spiro"
       id="path-effect4269"
       is_visible="true" />
    <inkscape:path-effect
       effect="spiro"
       id="path-effect4265"
       is_visible="true" />
  </defs>
  <sodipodi:namedview
     id="base"
     pagecolor="#ffffff"
     bordercolor="#666666"
     borderopacity="1.0"
     inkscape:pageopacity="0.0"
     inkscape:pageshadow="2"
     inkscape:zoom="2.8284272"
     inkscape:cx="66.000024"
     inkscape:cy="212.63747"
     inkscape:document-units="px"
     inkscape:current-layer="svg1"
     showgrid="false"
     inkscape:window-width="2192"
     inkscape:window-height="1396"
     inkscape:window-x="131"
     inkscape:window-y="0"
     inkscape:window-maximized="0"
     inkscape:object-paths="true"
     inkscape:snap-nodes="false"
     inkscape:snap-text-baseline="true"
     units="px"
     inkscape:snap-page="false"
     inkscape:snap-object-midpoints="true"
     inkscape:snap-center="true"
     inkscape:snap-bbox="true"
     inkscape:bbox-paths="true"
     inkscape:bbox-nodes="true"
     inkscape:snap-bbox-edge-midpoints="true"
     inkscape:snap-bbox-midpoints="true"
     inkscape:snap-smooth-nodes="false"
     inkscape:snap-intersection-paths="false"
     inkscape:object-nodes="false"
     inkscape:snap-midpoints="false" />
  <metadata
     id="metadata7">
    <rdf:RDF>
      <cc:Work
         rdf:about="">
        <dc:format>image/svg+xml</dc:format>
        <dc:type
           rdf:resource="http://purl.org/dc/dcmitype/StillImage" />
        <dc:title />
      </cc:Work>
    </rdf:RDF>
  </metadata>
  <rect width="100%" height="100%" fill="white"/>
  <g
     id="g847"
     transform="translate(6,-2)">
    <path
       sodipodi:nodetypes="sss"
       inkscape:connector-curvature="0"
       id="path4279"
       d="m 141.07508,121.22824 c -4.34066,-0.89976 -7.3117,15.37571 -4.63635,15.74188 4.13418,0.56584 6.72674,-15.30857 4.63635,-15.74188 z"
       style="fill:#000000;fill-opacity:1;fill-rule:evenodd;stroke:#000000;stroke-width:0.58414495px;stroke-linecap:butt;stroke-linejoin:miter;stroke-opacity:1" />
    <path
       sodipodi:nodetypes="caaacasc"
       inkscape:connector-curvature="0"
       id="path4281"
       d="m 131.06525,161.77533 c -3.11989,3.05247 -10.92669,18.00868 -11.18103,28.0803 -0.32868,13.01447 3.53321,27.62412 12.5981,36.96823 7.37202,7.59908 19.29392,9.42735 29.73981,11.15243 5.40249,0.89218 16.41886,-0.51632 16.41886,-0.51632 0,0 -0.0913,6.8247 1.962,9.19042 3.0368,3.49892 13.46281,9.40002 13.04912,4.78555 -0.54042,-6.02798 0.21222,-11.56404 -0.38014,-20.59645"
       style="fill:none;fill-rule:evenodd;stroke:#000000;stroke-width:1.75243485;stroke-linecap:butt;stroke-linejoin:miter;stroke-miterlimit:4;stroke-dasharray:none;stroke-opacity:1" />
    <path
       sodipodi:nodetypes="ccaaac"
       inkscape:connector-curvature="0"
       id="path4283"
       d="m 137.12865,230.50026 c -0.6695,8.45436 -6.07706,9.65771 -8.77685,13.87834 0,0 1.30482,2.4074 2.47832,2.89138 3.19226,1.31656 7.12092,0.45816 10.32632,-0.82611 2.63482,-1.05566 4.88683,-3.11327 6.60884,-5.36968 1.19756,-1.5692 2.3891,-5.41856 2.3891,-5.41856"
       style="fill:none;fill-rule:evenodd;stroke:#000000;stroke-width:1.75243485;stroke-linecap:butt;stroke-linejoin:miter;stroke-miterlimit:4;stroke-dasharray:none;stroke-opacity:1" />
    <path
       sodipodi:nodetypes="caacc"
       inkscape:connector-curvature="0"
       id="path4289"
       d="m 193.50093,236.67629 c 0,0 5.47017,-4.07342 8.66637,-5.06106 8.39023,-2.59264 17.60467,-0.49534 26.27895,-1.86457 4.01666,-0.63402 11.84288,-2.9268 11.84288,-2.9268 l 10.11979,-5.36968"
       style="fill:none;fill-rule:evenodd;stroke:#000000;stroke-width:1.75243485;stroke-linecap:butt;stroke-linejoin:miter;stroke-miterlimit:4;stroke-dasharray:none;stroke-opacity:1" />
    <path
       sodipodi:nodetypes="cac"
       inkscape:connector-curvature="0"
       id="path4293"
       d="m 175.85288,173.12699 c 0,0 12.01093,0.43647 17.46921,-1.66689 4.39956,-1.69538 11.34123,-8.45291 11.34123,-8.45291"
       style="fill:none;fill-rule:evenodd;stroke:#000000;stroke-width:1.75243485;stroke-linecap:round;stroke-linejoin:miter;stroke-miterlimit:4;stroke-dasharray:none;stroke-opacity:1" />
    <path
       sodipodi:nodetypes="caacaazcaaccacaaccsac"
       inkscape:connector-curvature="0"
       id="path4295"
       d="m 212.82111,143.80024 c 0,0 1.39339,-17.82218 -1.03262,-26.22886 -1.74015,-6.03 -5.15584,-11.68936 -9.39695,-16.31559 -1.91423,-2.08803 -6.96858,-4.863741 -6.96858,-4.863741 0,0 5.9319,-1.960805 8.46758,-3.712474 4.71494,-3.257117 8.73172,-7.595638 12.02847,-12.282951 6.99663,-9.947801 14.38986,-23.502336 15.90253,-32.837703 1.51268,-9.335366 0.82611,-14.043796 0.82611,-14.043796 -4.47126,0.505765 -12.64089,5.004207 -17.9678,9.087163 -7.11938,5.456849 -12.90012,12.631609 -17.9678,20.033065 -5.80074,8.472123 -9.29369,18.312008 -13.94053,27.468013 -4.44032,-1.307999 -11.56549,-2.409474 -18.27758,-1.445682 0,0 -1.54589,-32.087515 -4.95664,-47.707608 -1.75403,-8.032858 -7.90983,-23.363754 -7.90983,-23.363754 0,0 -7.23979,10.254729 -8.77186,16.201932 -3.06693,11.905225 -3.1119,24.913373 -0.29642,36.880557 1.79259,7.619388 10.63827,20.934254 10.63827,20.934254 -14.04392,4.252733 -21.1555,18.278755 -23.37046,29.995585 -1.25696,6.90766 -1.453,17.00347 -2.67702,21.94589 -0.80798,3.2625 -4.67386,6.09125 -3.77541,9.3207 2.34123,8.41558 20.96828,15.71817 20.96828,15.71817"
       style="fill:none;fill-rule:evenodd;stroke:#000000;stroke-width:1.75243485;stroke-linecap:round;stroke-linejoin:miter;stroke-miterlimit:4;stroke-dasharray:none;stroke-opacity:1" />
    <path
       inkscape:connector-curvature="0"
       id="path4305"
       d="m 148.11276,148.21017 c 0.38484,2.03806 2.43652,2.52485 4.77186,1.27003"
       style="fill:none;fill-rule:evenodd;stroke:#000000;stroke-width:0.58414495;stroke-linecap:butt;stroke-linejoin:miter;stroke-miterlimit:4;stroke-dasharray:none;stroke-opacity:1"
       sodipodi:nodetypes="cc" />
    <path
       inkscape:connector-curvature="0"
       id="path4307"
       d="m 150.13536,150.10299 c -0.727,0.83945 -1.33488,1.90434 -1.25006,3.79645"
       style="fill:none;fill-rule:evenodd;stroke:#000000;stroke-width:0.58414495;stroke-linecap:butt;stroke-linejoin:miter;stroke-miterlimit:4;stroke-dasharray:none;stroke-opacity:1"
       sodipodi:nodetypes="cc" />
    <path
       inkscape:connector-curvature="0"
       id="path4309"
       d="m 145.05187,154.79228 c 2.80336,-2.06262 5.94602,-0.16512 7.70735,1.54598"
       style="fill:none;fill-rule:evenodd;stroke:#000000;stroke-width:0.58414495;stroke-linecap:butt;stroke-linejoin:miter;stroke-miterlimit:4;stroke-dasharray:none;stroke-opacity:1"
       sodipodi:nodetypes="cc" />
    <path
       sodipodi:nodetypes="caaaacsssc"
       inkscape:connector-curvature="0"
       id="path4311"
       d="m 211.78849,117.57138 c 11.71417,-4.03484 26.52607,-2.84823 38.03028,2.54365 10.22603,4.79279 17.87135,14.66729 23.3658,24.53408 3.37764,6.06545 4.8422,13.22294 5.2573,20.153 0.77551,12.94692 -0.0429,26.67774 -5.2573,38.55356 -0.88952,2.02594 -4.23505,5.11127 -4.23505,5.11127 0,0 3.32669,5.85346 1.31433,9.20028 -3.56064,5.92178 -11.17673,8.93555 -18.11061,12.06527 -6.93388,3.12972 -14.64592,4.33087 -21.31918,2.53836 -1.74897,-0.46978 -2.38781,-2.52019 -2.38781,-2.52019"
       style="fill:none;fill-rule:evenodd;stroke:#000000;stroke-width:1.75243485;stroke-linecap:butt;stroke-linejoin:miter;stroke-miterlimit:4;stroke-dasharray:none;stroke-opacity:1" />
    <path
       sodipodi:nodetypes="zsz"
       inkscape:connector-curvature="0"
       id="path4313"
       d="m 178.84516,125.95647 c -4.05206,-1.70232 -7.30827,16.77711 -4.67315,17.81642 2.00171,0.78951 8.72521,-16.1141 4.67315,-17.81642 z"
       style="fill:#000000;fill-opacity:1;fill-rule:evenodd;stroke:#000000;stroke-width:0.58414495px;stroke-linecap:butt;stroke-linejoin:miter;stroke-opacity:1" />
    <path
       sodipodi:nodetypes="cc"
       inkscape:connector-curvature="0"
       id="path4315"
       d="m 278.97192,170.80288 c 8.89179,-0.76761 7.87857,17.01179 -0.63918,17.74078"
       style="fill:none;fill-rule:evenodd;stroke:#000000;stroke-width:1.75243485;stroke-linecap:butt;stroke-linejoin:miter;stroke-miterlimit:4;stroke-dasharray:none;stroke-opacity:1" />
    <path
       inkscape:connector-curvature="0"
       id="path4347"
       d="M 189.2771,92.375159 C 201.25562,68.00504 227.48448,44.254501 227.48448,44.254501"
       style="display:inline;fill:none;fill-rule:evenodd;stroke:#000000;stroke-width:1.1682899;stroke-linecap:round;stroke-linejoin:miter;stroke-miterlimit:4;stroke-dasharray:none;stroke-opacity:1" />
    <path
       style="display:inline;fill:none;fill-rule:evenodd;stroke:#000000;stroke-width:1.1682899;stroke-linecap:round;stroke-linejoin:miter;stroke-miterlimit:4;stroke-dasharray:none;stroke-opacity:1"
       d="M 160.06985,89.162362 C 150.89389,69.230191 149.45742,55.387013 151.25357,36.660617"
       id="path4374"
       inkscape:connector-curvature="0"
       sodipodi:nodetypes="cc" />
  </g>
  <a
     id="a4189"
     transform="matrix(0.58414494,0,0,0.58414494,2.9902607,0.580157)">
    <path
       style="fill:none;fill-opacity:1;stroke:#000000;stroke-width:3;stroke-linecap:round;stroke-miterlimit:4;stroke-dasharray:none;stroke-dashoffset:0;stroke-opacity:1"
       d="M 41.470596,82.995976 H 160.65682 c 15.49571,0 27.9706,12.47489 27.9706,27.970604 l 0,61.91037 20.1005,48.53919 -25.1005,-17.75979 c 0,0 -7.47489,9.4706 -22.9706,9.4706 H 41.470596 C 25.974886,213.12695 13.5,200.65206 13.5,185.15635 l 0,-74.18977 c 0,-15.495714 12.474886,-27.970604 27.970596,-27.970604 z"
       id="rect4187"
       inkscape:connector-curvature="0"
       sodipodi:nodetypes="ssscccsssss" />
  </a>
</svg>
